Coordinates
version=1
nRows=6
nColumns=46
inDegrees=yes

Units are S.I. units (second, meters, Newtons, ...)
Angles are in degrees.

endheader
time	pelvis_tilt	pelvis_list	pelvis_rotation	pelvis_tx	pelvis_ty	pelvis_tz	bb_angle	bb_tx	bb_ty	bb_tz	hip_flexion_r	hip_adduction_r	hip_rotation_r	knee_angle_r	knee_angle_r_beta	ankle_angle_r	subtalar_angle_r	mtp_angle_r	crank_angle_r	hip_flexion_l	hip_adduction_l	hip_rotation_l	knee_angle_l	knee_angle_l_beta	ankle_angle_l	subtalar_angle_l	mtp_angle_l	crank_angle_l	lumbar_extension	lumbar_bending	lumbar_rotation	arm_flex_r	arm_add_r	arm_rot_r	elbow_flex_r	pro_sup_r	wrist_flex_r	wrist_dev_r	arm_flex_l	arm_add_l	arm_rot_l	elbow_flex_l	pro_sup_l	wrist_flex_l	wrist_dev_l
      0.00000000	    -47.77898223	     34.24532863	      6.88758794	      0.06065251	      0.93914599	     -0.20707299	      0.00000000	      0.50000000	      0.00000000	      0.25000000	    119.96750375	      5.17111351	     39.78759008	     81.82359531	      1.42809114	     10.61647679	      2.45177626	      0.00000000	      0.00000000	     85.67565453	      5.71764060	    -31.12221786	     81.08593812	      1.41521660	      9.99154453	     -7.31148761	      0.00000000	      0.00000000	    -20.19116983	    -38.62392990	    -19.67373428	     88.33665806	      2.89891716	     32.22465343	     27.51153147	     25.67123402	      0.00000000	      0.00000000	     89.56638313	    -16.01073008	     42.08460222	     43.19281946	     26.30384688	      0.00000000	      0.00000000
      0.00500000	    -47.75814844	     34.22518371	      6.84784308	      0.06070362	      0.93915142	     -0.20709837	      0.00000000	      0.50000000	      0.00000000	      0.25000000	    119.96750644	      5.21020886	     39.78444334	     81.86819352	      1.42886953	     10.64104731	      2.44248449	      0.00000000	      0.00000000	     85.62566719	      5.70365033	    -31.11148893	     81.02945906	      1.41423085	     10.00130809	     -7.31016073	      0.00000000	      0.00000000	    -20.19071239	    -38.59778745	    -19.66557028	     88.33217442	      2.89600274	     32.20713096	     27.50836475	     25.68425430	      0.00000000	      0.00000000	     89.58425733	    -16.01737786	     42.07860516	     43.20842363	     26.31039490	      0.00000000	      0.00000000
      0.01000000	    -47.74465584	     34.20703348	      6.83970212	      0.06077626	      0.93917280	     -0.20707896	      0.00000000	      0.50000000	      0.00000000	      0.25000000	    119.96771922	      5.23213059	     39.78690152	     81.92894015	      1.42992976	     10.66361683	      2.43324869	      0.00000000	      0.00000000	     85.58228061	      5.70431891	    -31.12109906	     80.97517894	      1.41328348	     10.00795404	     -7.30525075	      0.00000000	      0.00000000	    -20.18725537	    -38.58258447	    -19.63520526	     88.32890746	      2.90066160	     32.19698125	     27.50824336	     25.69354692	      0.00000000	      0.00000000	     89.56524977	    -16.02888386	     42.06750883	     43.22420634	     26.31528419	      0.00000000	      0.00000000
      0.01500000	    -47.71117928	     34.20439654	      6.79645144	      0.06083444	      0.93916642	     -0.20700911	      0.00000000	      0.50000000	      0.00000000	      0.25000000	    119.96766607	      5.28196485	     39.78576538	     82.00743435	      1.43129974	     10.69843138	      2.41736596	      0.00000000	      0.00000000	     85.50649027	      5.70349162	    -31.10076839	     80.90148171	      1.41199723	     10.02406236	     -7.29809391	      0.00000000	      0.00000000	    -20.18618958	    -38.58226093	    -19.61885171	     88.32137591	      2.89820984	     32.18132741	     27.50575445	     25.70590700	      0.00000000	      0.00000000	     89.57917601	    -16.04383943	     42.06241928	     43.23932902	     26.32154007	      0.00000000	      0.00000000
      0.02000000	    -47.62015894	     34.43495863	      6.55071468	      0.06074824	      0.93937947	     -0.20646230	      0.00000000	      0.50000000	      0.00000000	      0.25000000	    119.96705658	      5.54964893	     39.78563100	     82.09404820	      1.43281144	     10.72047628	      2.45362285	      0.00000000	      0.00000000	     85.28746158	      5.52133928	    -31.40321471	     80.78193791	      1.40991079	     10.11808326	     -7.25596434	      0.00000000	      0.00000000	    -20.26689490	    -38.90536750	    -19.54790953	     88.35303529	      2.89850510	     32.09654813	     27.53951816	     25.78654189	      0.00000000	      0.00000000	     89.59344806	    -16.09031638	     42.11049124	     43.25873779	     26.35103473	      0.00000000	      0.00000000
      0.02500000	    -47.61175902	     34.37640652	      6.59433689	      0.06102606	      0.93933827	     -0.20661354	      0.00000000	      0.50000000	      0.00000000	      0.25000000	    119.96764769	      5.51056167	     39.79794849	     82.19315840	      1.43454124	     10.73192845	      2.43645755	      0.00000000	      0.00000000	     85.24760948	      5.57212321	    -31.39448105	     80.74057457	      1.40918887	     10.11795490	     -7.23944109	      0.00000000	      0.00000000	    -20.24470302	    -38.83139126	    -19.52508010	     88.31926917	      2.89136974	     32.08405535	     27.52988784	     25.79689558	      0.00000000	      0.00000000	     89.58304053	    -16.09165905	     42.10495132	     43.28258643	     26.35829720	      0.00000000	      0.00000000
